<?xml version="1.0" standalone="no"?>
<!DOCTYPE svg PUBLIC "-//W3C//DTD SVG 20010904//EN"
 "http://www.w3.org/TR/2001/REC-SVG-20010904/DTD/svg10.dtd">
<svg version="1.0" xmlns="http://www.w3.org/2000/svg"
 width="636.000000pt" height="636.000000pt" viewBox="0 0 636.000000 636.000000"
 preserveAspectRatio="xMidYMid meet">
<metadata>
Created by potrace 1.11, written by Peter Selinger 2001-2013
</metadata>
<g transform="translate(0.000000,636.000000) scale(0.100000,-0.100000)"
fill="#000000" stroke="none">
<path d="M3035 5854 c-578 -32 -1032 -150 -1500 -387 -1162 -591 -1747 -1746
-1455 -2873 264 -1020 1227 -1823 2449 -2043 399 -72 903 -72 1302 0 360 64
672 169 994 332 737 375 1268 999 1456 1711 96 367 96 795 0 1162 -270 1025
-1227 1823 -2450 2043 -217 39 -603 66 -796 55z m-86 -653 c171 -26 266 -52
367 -101 140 -67 235 -185 265 -328 6 -33 9 -102 7 -167 -4 -89 -11 -128 -37
-205 -51 -152 -181 -351 -307 -471 -182 -173 -437 -297 -704 -344 -106 -18
-360 -32 -360 -20 0 6 54 101 65 113 1 2 55 7 118 12 368 30 669 270 768 612
26 92 37 297 19 381 -52 252 -266 393 -634 416 -67 5 -123 7 -125 5 -2 -2 -75
-366 -162 -808 -87 -442 -167 -839 -178 -882 -84 -325 -266 -590 -548 -796
l-61 -45 75 -7 c42 -3 178 -6 302 -6 124 0 256 -3 293 -6 l67 -7 -126 -136
c-69 -75 -130 -140 -134 -145 -5 -6 -246 0 -618 14 l-610 24 142 146 142 145
115 6 c134 6 175 17 250 61 69 42 118 111 164 232 73 192 82 230 285 1266 88
448 164 835 170 860 5 24 8 47 5 49 -2 3 -53 0 -112 -7 -251 -27 -419 -101
-572 -255 -124 -124 -187 -269 -198 -460 l-7 -108 -193 -94 -193 -94 6 47 c26
186 74 354 138 477 207 399 593 589 1317 649 25 2 185 2 355 1 250 -3 336 -8
444 -24z m2491 -1564 c0 -7 -24 -115 -54 -239 -51 -211 -287 -1390 -321 -1598
-21 -132 -20 -207 4 -246 30 -49 72 -58 229 -50 114 5 133 4 129 -8 -3 -8 -9
-31 -13 -50 -3 -20 -7 -36 -9 -36 -1 0 -170 -34 -375 -75 -205 -41 -374 -74
-376 -72 -1 1 85 445 191 987 107 541 193 985 192 987 -2 1 -232 -369 -511
-823 -280 -453 -514 -828 -520 -833 -6 -5 -33 -12 -61 -15 -27 -4 -60 -10 -71
-12 -21 -5 -22 -1 -28 128 -15 280 -53 532 -126 836 -38 154 -128 479 -148
532 l-10 25 -6 -25 c-3 -14 -35 -171 -71 -348 -75 -371 -100 -477 -150 -623
-147 -425 -374 -673 -690 -755 -95 -25 -295 -25 -385 -1 -79 20 -239 99 -270
132 l-22 23 109 112 108 112 20 -28 c42 -59 115 -130 167 -161 100 -60 239
-79 349 -47 167 49 320 238 378 470 19 76 287 1418 298 1495 l5 36 -64 7
c-185 20 -378 -68 -493 -224 -74 -101 -125 -245 -125 -354 l0 -46 -151 -76
-152 -76 7 64 c9 89 47 223 89 309 168 350 575 551 1085 537 l114 -3 59 -180
c126 -383 244 -847 308 -1215 17 -96 34 -186 37 -200 5 -24 6 -24 16 -5 21 38
971 1590 979 1599 4 5 70 17 146 26 174 22 183 23 183 7z"/>
</g>
</svg>
